PathFileType	4	(X/Y/Z)	..\data\2014025\dynamic\2014025_C5_02.trc
DataRate	CameraRate	NumFrames	NumMarkers	Units	OrigDataRate	OrigDataStartFrame	OrigNumFrames
100.000000	100.000000	4	52	mm	100.000000	31	125
Frame#	Time	L_IAS			L_IPS			R_IPS			R_IAS			L_FTC			L_FLE			L_FME			L_FAX			L_TTC			L_FAL			L_TAM			L_FCC			L_FM1			L_FM2			L_FM5			R_FTC			R_FLE			R_FME			R_FAX			R_TTC			R_FAL			R_TAM			R_FCC			R_FM1			R_FM2			R_FM5			CV7			TV10			SXS			SJN			L_SIA			L_SRS			L_SAA			L_SAE			L_HLE			L_HME			L_UOA			L_RSP			L_UHE			L_HM2			L_HM5			R_SIA			R_SRS			R_SAA			R_SAE			R_HLE			R_HME			R_UOA			R_RSP			R_UHE			R_HM2			R_HM5			
		X1	Y1	Z1	X2	Y2	Z2	X3	Y3	Z3	X4	Y4	Z4	X5	Y5	Z5	X6	Y6	Z6	X7	Y7	Z7	X8	Y8	Z8	X9	Y9	Z9	X10	Y10	Z10	X11	Y11	Z11	X12	Y12	Z12	X13	Y13	Z13	X14	Y14	Z14	X15	Y15	Z15	X16	Y16	Z16	X17	Y17	Z17	X18	Y18	Z18	X19	Y19	Z19	X20	Y20	Z20	X21	Y21	Z21	X22	Y22	Z22	X23	Y23	Z23	X24	Y24	Z24	X25	Y25	Z25	X26	Y26	Z26	X27	Y27	Z27	X28	Y28	Z28	X29	Y29	Z29	X30	Y30	Z30	X31	Y31	Z31	X32	Y32	Z32	X33	Y33	Z33	X34	Y34	Z34	X35	Y35	Z35	X36	Y36	Z36	X37	Y37	Z37	X38	Y38	Z38	X39	Y39	Z39	X40	Y40	Z40	X41	Y41	Z41	X42	Y42	Z42	X43	Y43	Z43	X44	Y44	Z44	X45	Y45	Z45	X46	Y46	Z46	X47	Y47	Z47	X48	Y48	Z48	X49	Y49	Z49	X50	Y50	Z50	X51	Y51	Z51	X52	Y52	Z52	

32	0.31	323.3110046386719	898.3347778320315	-408.3375854492189	96.99845123291018	976.718688964844	-369.1642150878907	86.5199432373047	972.701354980469	-253.8908996582032	298.4566345214844	915.9517211914065	-147.152328491211	220.8339843750001	844.1217041015627	-505.0365600585939	173.6223449707032	467.3247375488282	-421.4494934082032	146.2856597900391	460.1430664062501	-262.6494750976563	139.3382568359375	418.2832031250001	-422.916473388672	188.9548797607422	379.1916503906251	-360.1809082031251	63.42789840698244	76.1520462036133	-370.0812072753907	75.09958648681642	86.00683593750001	-282.5714111328126	15.47908115386963	35.38586044311524	-320.9354858398438	200.7167510986329	20.36100006103516	-273.7878112792969	206.8386993408204	37.35937881469727	-333.2063903808594	164.9682006835938	21.69020080566407	-382.6982421875001	201.2023620605469	839.063171386719	-80.32285308837892	366.1795959472657	492.3950805664064	-120.1806259155274	404.4893188476564	497.0921020507814	-279.0922546386719	341.9561157226563	419.8631896972657	-122.1660232543946	433.0295715332032	414.2943725585939	-169.381591796875	346.5143127441407	91.02688598632814	-170.6283721923828	392.5984191894532	102.3914260864258	-249.9054565429688	331.6019287109376	35.62184143066407	-240.4743041992188	511.2603454589845	51.20139312744142	-195.9643554687501	487.0102539062501	74.72478485107423	-149.951889038086	439.7832336425782	47.46728515625001	-116.1595535278321	187.2568511962891	1419.37353515625	-301.0464477539063	107.4446487426758	1198.464599609375	-304.9914550781251	359.2737731933594	1200.203125	-278.0586547851563	297.0320129394532	1341.037719726563	-290.6239318847657	112.8161926269532	1238.80078125	-410.1296997070314	150.1736145019532	1369.844482421875	-389.219940185547	200.0992431640626	1376.693237304688	-462.0290527343751	252.0126342773438	1381.717407226563	-476.5812072753907	300.5474243164063	1081.059692382813	-576.9624023437501	258.4656372070313	1046.637573242188	-500.438446044922	268.5028991699219	1049.367797851563	-547.8794555664064	445.2643127441407	876.412048339844	-542.4569091796876	393.812225341797	862.9710693359377	-603.6785888671876	491.6361083984376	810.664978027344	-573.3037109375001	414.4707946777345	812.5664672851565	-630.5031738281251	92.1203079223633	1233.25146484375	-204.9989166259766	139.537582397461	1364.175170898438	-216.3768310546876	178.6685333251953	1376.332641601563	-147.2429504394532	227.0307159423829	1377.342651367188	-123.6488876342774	154.6001129150391	1072.701538085938	-35.18163299560548	151.7593383789063	1053.880004882813	-122.2554092407227	137.7429962158203	1047.33154296875	-69.70825195312501	214.7585144042969	826.2178344726565	-5.326009273529054	159.8916015625	840.0139770507815	30.59525108337403	203.451400756836	749.7289428710939	21.68067741394043	120.931510925293	800.616394042969	35.38959121704102	
33	0.32	340.5009155273438	895.387390136719	-408.5910949707032	114.7091445922852	974.575134277344	-367.8166198730469	105.3577423095703	970.0244140625002	-252.2272491455079	319.0651550292969	913.4046630859377	-148.0428161621094	237.4371643066407	841.6156005859377	-505.2982482910157	179.8406829833985	467.2686462402345	-420.7839355468751	153.1409149169922	460.8545837402345	-261.6753845214844	144.2655029296875	419.079315185547	-421.902801513672	193.9054565429688	378.8251953125001	-359.5241088867188	63.94697952270509	77.69284820556642	-368.2856750488282	76.7097625732422	87.41438293457033	-280.8986206054688	15.59262657165528	37.71776580810548	-318.8768005371094	201.5670013427735	19.98532676696778	-273.8042602539063	207.5321960449219	37.25905227661134	-333.0837402343751	164.4202728271485	22.18669509887696	-382.1131896972657	221.7879333496094	835.9272460937502	-79.8284378051758	388.4393005371095	490.7946166992189	-120.9850540161133	422.3622436523439	494.6384277343751	-281.1918334960938	367.3348999023438	416.5500488281251	-122.5457763671875	458.5959777832032	416.5584106445314	-170.1862335205078	398.9405517578126	88.27908325195314	-168.2324981689453	443.430389404297	102.6443481445313	-247.8118133544922	387.8402099609376	31.25229454040528	-237.8974609375001	565.6952514648439	61.1579055786133	-195.3346710205079	540.7313232421876	82.68118286132814	-149.093017578125	495.8113708496095	52.31557846069337	-114.552474975586	204.6742858886719	1416.673461914063	-301.0678100585938	124.9653015136719	1195.707641601563	-305.2013549804688	376.7472839355469	1197.822143554688	-277.2537536621094	314.6985778808594	1338.531127929688	-290.1505737304688	130.9681701660157	1236.411499023438	-410.8750000000001	168.0862121582032	1367.501220703125	-389.6461486816407	218.1884307861329	1374.431274414063	-462.4002685546876	270.4840698242188	1379.7529296875	-476.2778320312501	328.0565185546876	1080.992431640625	-576.6926269531251	285.6820983886719	1044.767822265625	-501.2341613769532	296.6093139648438	1048.138916015625	-548.3507080078126	479.398651123047	882.1236572265627	-538.7537841796876	429.7550659179689	866.4907226562502	-601.0183105468751	528.2331542968751	817.455993652344	-567.7458496093751	452.6282958984376	816.7637939453127	-627.0341796875001	109.8258514404297	1230.325073242188	-205.7517700195313	156.9766845703125	1361.411254882813	-216.6808166503907	195.8479614257813	1373.766357421875	-147.3629913330078	244.1642303466797	1374.8115234375	-123.5351333618164	165.7050933837891	1072.119995117188	-35.3226547241211	165.0785675048828	1052.130981445313	-122.6217346191407	149.4235382080078	1047.10302734375	-70.1067581176758	217.9035797119141	824.4678955078127	-1.653630495071412	162.4737243652344	840.2855224609377	32.57920837402344	203.1219787597657	748.4973754882814	25.59784126281739	122.1145706176758	802.368835449219	36.73503494262696	
34	0.33	357.4816284179688	891.924499511719	-409.2768554687501	132.2876281738282	971.8958129882815	-365.7127380371094	124.1539611816407	966.702819824219	-249.8230895996094	339.8259277343751	910.089538574219	-148.7113800048828	253.8014526367188	838.9324951171877	-505.5592041015626	186.7249603271485	467.1155090332032	-420.2566528320314	161.0895538330078	461.3211669921876	-260.8005981445313	149.8863220214844	419.8213500976564	-420.9971008300782	199.5380401611329	378.3102111816407	-359.0810546875001	64.52559661865236	79.37245941162111	-366.6928405761719	78.31192016601564	88.92601013183595	-279.4128112792969	15.66109371185303	40.20933532714844	-317.0283813476563	202.4329986572266	19.64711380004883	-273.8476562500001	208.2661743164063	37.22430801391602	-332.9844055175782	164.0133514404297	22.66538619995118	-381.5487976074219	243.1254577636719	832.160827636719	-79.02961730957033	410.1951904296876	488.4703979492189	-121.5961380004883	439.520233154297	491.145721435547	-283.2368774414063	392.201141357422	413.0857849121095	-122.7710494995117	483.2828063964845	418.2425842285157	-171.0467834472657	449.3272705078126	86.86431884765626	-166.1150512695313	491.8138122558595	103.964340209961	-246.0933837890626	441.6209106445314	28.51209831237794	-235.6692810058594	617.1170043945314	71.64856719970705	-195.5302886962891	591.8800048828126	91.29199218750001	-148.9962768554688	549.3580322265626	58.04893875122072	-113.5934143066407	222.1064605712891	1413.648559570313	-300.9955444335938	142.4994659423828	1192.561157226563	-305.3269042968751	394.360565185547	1194.961791992188	-276.5335388183594	332.4412231445313	1335.627563476563	-289.5808715820313	149.1404876708985	1233.655395507813	-411.5203857421876	186.0132293701172	1364.856201171875	-390.0162048339845	236.3319549560547	1371.838500976563	-462.7110290527345	288.9727172851563	1377.480834960938	-475.9116821289064	355.1927185058594	1080.839233398438	-576.3032226562501	312.6958312988282	1042.821044921875	-501.8768615722657	324.3946228027344	1046.869995117188	-548.6807861328126	512.7952880859376	887.949157714844	-534.9101562500001	465.0153808593751	870.2139892578127	-598.1345825195314	564.0082397460939	824.4786376953127	-562.0559082031251	490.0753173828126	821.249450683594	-623.3281860351564	127.5452346801758	1227.010131835938	-206.3430480957032	174.425765991211	1358.326538085938	-216.8350677490235	213.0328521728516	1370.847290039063	-147.3489379882813	261.3383178710938	1371.906494140625	-123.3171539306641	177.052978515625	1071.27734375	-35.23489379882813	178.2993927001953	1049.998779296875	-122.5910568237305	161.3631896972657	1046.532592773438	-70.22373962402345	221.9188232421876	822.8059082031252	2.003523349761963	166.0768585205078	840.5220336914065	34.63463592529298	203.9114685058594	747.4185180664064	29.45658874511719	124.4626922607422	804.0610351562502	38.23141860961915	
35	0.34	374.3013610839844	888.0518188476565	-410.361297607422	149.8084869384766	968.7808837890627	-362.8793945312501	142.9553680419922	962.8208007812502	-246.7180938720704	360.6878662109376	906.1821899414065	-149.1043701171875	269.8883972167969	836.2090454101565	-505.7379760742189	194.3616485595704	466.8562011718751	-419.8628845214845	170.1587677001953	461.5010070800782	-260.0390014648438	156.294677734375	420.4890136718751	-420.2021789550782	205.8999633789063	377.6259460449219	-358.8378601074219	65.18415832519533	81.20980834960939	-365.3633422851563	79.88470458984376	90.54956817626955	-278.1705017089844	15.68878746032715	42.89605331420899	-315.4592895507813	203.2754669189454	19.30989456176758	-273.9029235839844	209.019760131836	37.22701644897462	-332.8972167968751	163.7440643310547	23.08087158203125	-381.0155029296876	265.2122192382813	827.974548339844	-77.93875122070314	431.653045654297	485.6242065429689	-122.0347290039063	456.2608337402345	486.9103088378907	-285.1815490722657	416.6931152343751	409.6282653808595	-122.8520736694336	507.2379150390626	419.3835449218751	-172.036361694336	497.0277709960939	86.50671386718751	-164.3402709960938	537.1961669921876	106.0017852783203	-244.8169555664063	492.1724243164064	27.07899284362794	-233.8303680419922	665.0716552734376	82.06090545654298	-196.5362396240235	639.9587402343751	100.0297775268555	-149.6637725830078	599.8240356445314	64.17532348632814	-113.3126907348633	239.5906829833985	1410.38232421875	-300.7832641601563	160.0833282470703	1189.113525390625	-305.3741455078126	412.1498413085939	1191.719360351563	-275.8868103027344	350.2850646972657	1332.403686523438	-288.8873901367188	167.3651580810547	1230.639770507813	-412.0584411621095	203.9836883544922	1362.008422851563	-390.2869873046876	254.5710906982422	1369.026245117188	-462.8964843750001	307.5051574707032	1374.997314453125	-475.4275512695314	381.9017028808594	1080.66455078125	-575.7824707031251	339.4319152832032	1040.888061523438	-502.3517456054689	351.7873229980469	1045.622314453125	-548.8659057617189	545.3845825195314	893.8757934570315	-530.9559326171876	499.4985351562501	874.1340942382815	-595.0498046875001	598.9333496093751	831.7857055664065	-556.3392944335939	526.7312011718751	826.0230102539065	-619.4323120117189	145.3018188476563	1223.383911132813	-206.7756805419922	191.9062194824219	1354.994506835938	-216.8193054199219	230.2352905273438	1367.647827148438	-147.183822631836	278.5534362792969	1368.7021484375	-122.9667205810547	188.7200775146485	1070.198364257813	-34.90359115600587	191.4349517822266	1047.596801757813	-122.1522064208985	173.60791015625	1045.664428710938	-70.04236602783205	226.9261474609376	821.2046508789065	5.615988731384278	170.8104248046875	840.6721191406252	36.75935363769532	205.9821929931641	746.4426269531251	33.23827362060548	128.0883483886719	805.614685058594	39.8874740600586	
